<svg xmlns="http://www.w3.org/2000/svg" viewBox="0 0 800 450" width="100%" height="100%">
  <defs>
    <linearGradient id="bg" x1="0%" y1="0%" x2="100%" y2="100%">
      <stop offset="0%" stop-color="#050B14"/>
      <stop offset="100%" stop-color="#0F172A"/>
    </linearGradient>
    <linearGradient id="glow" x1="0%" y1="0%" x2="100%" y2="0%">
      <stop offset="0%" stop-color="#F59E0B"/>
      <stop offset="100%" stop-color="#38BDF8"/>
    </linearGradient>
  </defs>
  <rect width="800" height="450" fill="url(#bg)"/>
  <rect x="50" y="40" width="700" height="370" rx="16" fill="#0A101D" stroke="rgba(245, 158, 11, 0.4)" stroke-width="2"/>
  <circle cx="90" cy="75" r="7" fill="#F43F5E"/>
  <circle cx="115" cy="75" r="7" fill="#F59E0B"/>
  <circle cx="140" cy="75" r="7" fill="#10B981"/>
  <text x="175" y="80" fill="#E2E8F0" font-family="'Orbitron', sans-serif" font-size="14" font-weight="700">HOTEL RESERVATION SYSTEM · PYTHON &amp; SQLALCHEMY</text>
  
  <rect x="100" y="130" width="280" height="150" rx="12" fill="rgba(15, 23, 42, 0.8)" stroke="rgba(245, 158, 11, 0.3)"/>
  <text x="120" y="165" fill="#F59E0B" font-family="'Orbitron', sans-serif" font-size="14" font-weight="700">ROOM AVAILABILITY SEARCH</text>
  <text x="120" y="195" fill="#94A3B8" font-family="sans-serif" font-size="12">Check-In: 2026-09-01</text>
  <text x="120" y="220" fill="#94A3B8" font-family="sans-serif" font-size="12">Check-Out: 2026-09-05</text>
  <rect x="120" y="238" width="140" height="30" rx="6" fill="#F59E0B"/>
  <text x="140" y="258" fill="#0F172A" font-family="sans-serif" font-size="11" font-weight="800">SEARCH ROOMS</text>

  <rect x="420" y="130" width="280" height="150" rx="12" fill="rgba(15, 23, 42, 0.8)" stroke="rgba(56, 189, 248, 0.3)"/>
  <text x="440" y="165" fill="#38BDF8" font-family="'Orbitron', sans-serif" font-size="14" font-weight="700">BOOKING MANAGEMENT</text>
  <text x="440" y="195" fill="#34D399" font-family="sans-serif" font-size="12">✔ Booking #BK-9021 Confirmed</text>
  <text x="440" y="220" fill="#CBD5E1" font-family="sans-serif" font-size="12">Customer: Rashil Kumar</text>
  <text x="440" y="245" fill="#CBD5E1" font-family="sans-serif" font-size="12">Room: Deluxe Suite #402</text>

  <rect x="100" y="320" width="180" height="45" rx="8" fill="rgba(245, 158, 11, 0.15)" stroke="rgba(245, 158, 11, 0.4)"/>
  <text x="120" y="347" fill="#F59E0B" font-family="sans-serif" font-size="12" font-weight="700">PYTHON 3.8+ / FLASK</text>
  <rect x="300" y="320" width="200" height="45" rx="8" fill="rgba(56, 189, 248, 0.15)" stroke="rgba(56, 189, 248, 0.4)"/>
  <text x="320" y="347" fill="#38BDF8" font-family="sans-serif" font-size="12" font-weight="700">SQLALCHEMY ORM / SQL</text>
  <rect x="520" y="320" width="180" height="45" rx="8" fill="rgba(52, 211, 153, 0.15)" stroke="rgba(52, 211, 153, 0.4)"/>
  <text x="540" y="347" fill="#34D399" font-family="sans-serif" font-size="12" font-weight="700">ENTRY: python app.py</text>
</svg>
